<mxfile host="app.diagrams.net" agent="Mozilla/5.0 (Windows NT 10.0; Win64; x64) AppleWebKit/537.36 (KHTML, like Gecko) Chrome/129.0.0.0 Safari/537.36" version="24.7.17">
  <diagram name="Page-1" id="iBXx6LL_9fPJ7tPH7t0o">
    <mxGraphModel dx="794" dy="446" grid="1" gridSize="10" guides="1" tooltips="1" connect="1" arrows="1" fold="1" page="1" pageScale="1" pageWidth="827" pageHeight="1169" math="0" shadow="0">
      <root>
        <mxCell id="0" />
        <mxCell id="1" parent="0" />
        <mxCell id="IHfvf1YX7ymtNClBFQyE-17" value="Mulai" style="rounded=1;whiteSpace=wrap;arcSize=50;strokeWidth=2;" vertex="1" parent="1">
          <mxGeometry x="208" y="10" width="62" height="34" as="geometry" />
        </mxCell>
        <mxCell id="IHfvf1YX7ymtNClBFQyE-18" value="Setup" style="whiteSpace=wrap;strokeWidth=2;" vertex="1" parent="1">
          <mxGeometry x="189" y="94" width="100" height="49" as="geometry" />
        </mxCell>
        <mxCell id="IHfvf1YX7ymtNClBFQyE-19" value="Inisialisasi servo di pin 9" style="whiteSpace=wrap;strokeWidth=2;" vertex="1" parent="1">
          <mxGeometry x="122" y="192" width="234" height="49" as="geometry" />
        </mxCell>
        <mxCell id="IHfvf1YX7ymtNClBFQyE-20" value="Ulangi loop" style="whiteSpace=wrap;strokeWidth=2;" vertex="1" parent="1">
          <mxGeometry x="169" y="291" width="140" height="49" as="geometry" />
        </mxCell>
        <mxCell id="IHfvf1YX7ymtNClBFQyE-22" value="Kalkulasi sudut untuk servo" style="whiteSpace=wrap;strokeWidth=2;" vertex="1" parent="1">
          <mxGeometry x="30" y="506" width="256" height="49" as="geometry" />
        </mxCell>
        <mxCell id="IHfvf1YX7ymtNClBFQyE-23" value="Gerakkan servo ke sudut" style="whiteSpace=wrap;strokeWidth=2;" vertex="1" parent="1">
          <mxGeometry x="40" y="605" width="236" height="49" as="geometry" />
        </mxCell>
        <mxCell id="IHfvf1YX7ymtNClBFQyE-24" value="Tunggu 15ms" style="whiteSpace=wrap;strokeWidth=2;" vertex="1" parent="1">
          <mxGeometry x="163" y="703" width="152" height="49" as="geometry" />
        </mxCell>
        <mxCell id="IHfvf1YX7ymtNClBFQyE-25" value="" style="curved=1;startArrow=none;endArrow=block;exitX=0.5;exitY=0.99;entryX=0.5;entryY=-0.01;rounded=0;" edge="1" parent="1" source="IHfvf1YX7ymtNClBFQyE-17" target="IHfvf1YX7ymtNClBFQyE-18">
          <mxGeometry relative="1" as="geometry">
            <Array as="points" />
          </mxGeometry>
        </mxCell>
        <mxCell id="IHfvf1YX7ymtNClBFQyE-26" value="" style="curved=1;startArrow=none;endArrow=block;exitX=0.5;exitY=0.99;entryX=0.5;entryY=0.01;rounded=0;" edge="1" parent="1" source="IHfvf1YX7ymtNClBFQyE-18" target="IHfvf1YX7ymtNClBFQyE-19">
          <mxGeometry relative="1" as="geometry">
            <Array as="points" />
          </mxGeometry>
        </mxCell>
        <mxCell id="IHfvf1YX7ymtNClBFQyE-27" value="" style="curved=1;startArrow=none;endArrow=block;exitX=0.5;exitY=1;entryX=0.5;entryY=0;rounded=0;" edge="1" parent="1" source="IHfvf1YX7ymtNClBFQyE-19" target="IHfvf1YX7ymtNClBFQyE-20">
          <mxGeometry relative="1" as="geometry">
            <Array as="points" />
          </mxGeometry>
        </mxCell>
        <mxCell id="IHfvf1YX7ymtNClBFQyE-30" value="" style="curved=1;startArrow=none;endArrow=block;exitX=0.5;exitY=0.99;entryX=0.5;entryY=-0.01;rounded=0;" edge="1" parent="1" source="IHfvf1YX7ymtNClBFQyE-22" target="IHfvf1YX7ymtNClBFQyE-23">
          <mxGeometry relative="1" as="geometry">
            <Array as="points" />
          </mxGeometry>
        </mxCell>
        <mxCell id="IHfvf1YX7ymtNClBFQyE-31" value="" style="curved=1;startArrow=none;endArrow=block;exitX=0.5;exitY=0.99;entryX=0.24;entryY=0.01;rounded=0;" edge="1" parent="1" source="IHfvf1YX7ymtNClBFQyE-23" target="IHfvf1YX7ymtNClBFQyE-24">
          <mxGeometry relative="1" as="geometry">
            <Array as="points">
              <mxPoint x="158" y="678" />
            </Array>
          </mxGeometry>
        </mxCell>
        <mxCell id="IHfvf1YX7ymtNClBFQyE-32" value="" style="curved=1;startArrow=none;endArrow=block;exitX=0.77;exitY=0.01;entryX=0.79;entryY=0.99;rounded=0;" edge="1" parent="1" source="IHfvf1YX7ymtNClBFQyE-24" target="IHfvf1YX7ymtNClBFQyE-20">
          <mxGeometry relative="1" as="geometry">
            <Array as="points">
              <mxPoint x="321" y="678" />
              <mxPoint x="321" y="365" />
            </Array>
          </mxGeometry>
        </mxCell>
        <mxCell id="IHfvf1YX7ymtNClBFQyE-33" value="Baca nilai dari potensiometer di A0" style="shape=parallelogram;perimeter=parallelogramPerimeter;whiteSpace=wrap;html=1;fixedSize=1;" vertex="1" parent="1">
          <mxGeometry x="40" y="400" width="210" height="60" as="geometry" />
        </mxCell>
        <mxCell id="IHfvf1YX7ymtNClBFQyE-34" value="" style="endArrow=classic;html=1;rounded=0;entryX=0.429;entryY=0;entryDx=0;entryDy=0;exitX=0;exitY=0.5;exitDx=0;exitDy=0;entryPerimeter=0;" edge="1" parent="1" source="IHfvf1YX7ymtNClBFQyE-20" target="IHfvf1YX7ymtNClBFQyE-33">
          <mxGeometry width="50" height="50" relative="1" as="geometry">
            <mxPoint x="140" y="330" as="sourcePoint" />
            <mxPoint x="150" y="320" as="targetPoint" />
            <Array as="points">
              <mxPoint x="130" y="360" />
            </Array>
          </mxGeometry>
        </mxCell>
        <mxCell id="IHfvf1YX7ymtNClBFQyE-35" value="" style="endArrow=classic;html=1;rounded=0;exitX=0.5;exitY=1;exitDx=0;exitDy=0;entryX=0.456;entryY=0;entryDx=0;entryDy=0;entryPerimeter=0;" edge="1" parent="1" source="IHfvf1YX7ymtNClBFQyE-33" target="IHfvf1YX7ymtNClBFQyE-22">
          <mxGeometry width="50" height="50" relative="1" as="geometry">
            <mxPoint x="220" y="490" as="sourcePoint" />
            <mxPoint x="140" y="500" as="targetPoint" />
          </mxGeometry>
        </mxCell>
      </root>
    </mxGraphModel>
  </diagram>
</mxfile>
